<svg xmlns="http://www.w3.org/2000/svg" version="1.1" xmlns:xlink="http://www.w3.org/1999/xlink" xmlns:svgjs="http://svgjs.com/svgjs" width="512" height="512" x="0" y="0" viewBox="0 0 66 66" style="enable-background:new 0 0 512 512" xml:space="preserve" class=""><g><path d="M35.2 27c-2.6 1.2-5.6-1.1-6.7 3.9 2.8 6 7 5.1 9.3-.8-1.1-.6-2-2-2.6-3.1z" fill="#000000" data-original="#000000"></path><path d="M35.7 24.6c.3 0 .6.3.8.6.6 1.3 1.3 2.5 1.9 3.1.1-.5.2-1.1.2-1.5 0-3.1-2.5-5.6-5.6-5.6s-5.6 2.5-5.6 5.6c0 .4 0 .9.1 1.4 2.2-3.8 6.2-1.7 7.3-3.1.3-.4.6-.6.9-.5zM31.1 36.5v1.2c0 1 3.8 1 3.8 0v-1.2c-1.3.6-2.6.6-3.8 0z" fill="#000000" data-original="#000000"></path><path d="M33 1C15.4 1 1 15.4 1 33s14.4 32 32 32 32-14.4 32-32S50.6 1 33 1zm23.4 36.4L50.8 39l-.9 2.2 2.8 5.1c.2.4.1.9-.2 1.2l-5 5c-.3.3-.8.4-1.2.2l-5.1-2.8-2.2.9-1.6 5.6c-.1.4-.5.7-.9.7h-7c-.4 0-.8-.3-.9-.7L27 50.8l-2.2-.9-5.1 2.8c-.4.2-.9.1-1.2-.2l-5-5c-.3-.3-.4-.8-.2-1.2l2.8-5.1-.9-2.2-5.6-1.6c-.4-.1-.7-.5-.7-.9v-7c0-.4.3-.8.7-.9l5.6-1.6.9-2.2-2.8-5.1c-.2-.4-.1-.9.2-1.2l5-5c.3-.3.8-.4 1.2-.2l5.1 2.8 2.2-.9 1.6-5.6c.1-.4.5-.7.9-.7h7c.4 0 .8.3.9.7l1.6 5.6 2.3.9 5.1-2.8c.4-.2.9-.1 1.2.2l5 5c.3.3.4.8.2 1.2L50 24.8l.9 2.2 5.6 1.6c.4.1.7.5.7.9v7c-.1.4-.4.8-.8.9z" fill="#000000" data-original="#000000"></path><path d="M49.1 28.1 47.9 25c-.1-.3-.1-.6 0-.8l2.7-4.9-3.9-3.9-4.9 2.7c-.3.1-.6.2-.8 0l-3.1-1.3c-.3-.1-.5-.3-.6-.6l-1.5-5.4h-5.5l-1.6 5.4c-.1.3-.3.5-.6.6L25 18.1c-.3.1-.6.1-.8 0l-4.9-2.7-3.9 3.9 2.7 4.9c.1.3.2.6 0 .8l-1.3 3.1c-.1.3-.3.5-.6.6l-5.4 1.6v5.5l5.4 1.6c.3.1.5.3.6.6l1.3 3.1c.1.3.1.6 0 .8l-2.7 4.9 3.9 3.9 4.9-2.7c.3-.1.6-.2.8 0l3.1 1.3c.3.1.5.3.6.6l1.6 5.4h5.5l1.5-5.4c.1-.3.3-.5.6-.6L41 48c.3-.1.6-.1.8 0l4.9 2.7 3.9-3.9-2.7-4.9c-.1-.3-.2-.6 0-.8l1.3-3.1c.1-.3.3-.5.6-.6l5.4-1.6v-5.5l-5.4-1.6c-.3-.1-.5-.3-.7-.6zm-35 5.6c-.4.4-1 .4-1.4 0s-.4-1 0-1.4 1-.4 1.4 0c.3.4.3 1 0 1.4zm18.2-21c.4-.3 1-.4 1.4 0s.4 1 0 1.4c-.3.4-1 .4-1.4 0s-.4-1 0-1.4zm-13.9 5.7c.4-.4 1-.4 1.4 0s.4 1 0 1.4-1 .4-1.4 0c-.3-.4-.3-1 0-1.4zm1.4 29.2c-.3.4-1 .4-1.4 0s-.4-1 0-1.4 1-.4 1.4 0c.4.3.4 1 0 1.4zm7.9-2.2c0 .5-.4 1-1 1s-1-.4-1-1v-2.1c0-.5.4-1 1-1s1 .4 1 1zm6 7.9c-.4.4-1 .4-1.4 0s-.4-1 0-1.4c.3-.4 1-.4 1.4 0s.4 1 0 1.4zm6.6-7.9c0 .5-.4 1-1 1-.5 0-1-.4-1-1v-2.1c0-.5.4-1 1-1 .5 0 1 .4 1 1zm3.8 0c0 .5-.4 1-1 1s-1-.4-1-1v-3.5c0-.7-.4-1.3-1.1-1.5L36.4 39c-1.3 2-5.7 2-7 0l-4.6 1.4c-.6.2-1.1.8-1.1 1.5v3.5c0 .5-.4 1-1 1s-1-.4-1-1v-3.5c0-1.5 1-2.9 2.5-3.3l4.8-1.5v-1.8c-2.2-2.2-3.6-5.8-3.6-8.5 0-4.1 3.4-7.5 7.5-7.5s7.5 3.4 7.5 7.5c0 1-.2 2.1-.5 3.2-.6 2-1.7 3.9-3.1 5.3V37l4.8 1.5c1.5.5 2.5 1.8 2.5 3.3zm3.5 2.2c-.4.4-1 .4-1.4 0s-.4-1 0-1.4 1-.4 1.4 0c.3.4.3 1 0 1.4zm0-27.8c-.4.4-1 .4-1.4 0s-.4-1 0-1.4 1-.4 1.4 0c.3.4.3 1 0 1.4zm4.3 12.5c.4-.4 1-.4 1.4 0s.4 1 0 1.4-1 .4-1.4 0c-.3-.4-.3-1 0-1.4z" fill="#000000" data-original="#000000"></path></g></svg>