<svg xmlns="http://www.w3.org/2000/svg" version="1.1" xmlns:xlink="http://www.w3.org/1999/xlink" xmlns:svgjs="http://svgjs.com/svgjs" width="512" height="512" x="0" y="0" viewBox="0 0 512 511" style="enable-background:new 0 0 512 512" xml:space="preserve"><g><path d="M442.313 9.582c-3.836-1.617-8.254.18-9.872 4.004a7.522 7.522 0 0 0 3.997 9.871c34.843 14.707 60.667 49.535 60.667 91.586 0 91.117-113.457 134.539-173.87 65.89-34.157-38.492-33.766-98.277 4.144-136.187 22.402-22.414 52.695-31.914 82.086-28.43 4.129.473 7.875-2.457 8.367-6.593.492-4.13-2.46-7.875-6.59-8.368-98.676-11.726-163.918 99.434-107.199 179.579H146.207c-7.039 0-12.75 5.722-12.75 12.75v97.437l-14.148 27.805c-2.68 5.273-7.149 9.207-12.45 11.219 0-11.622-9.113-19.684-19.3-19.684H58.508c-10.02 0-19.309 7.773-19.309 20.074H20.523C9.207 330.535 0 339.742 0 351.066v9.121a7.524 7.524 0 0 0 7.531 7.528c4.157 0 7.532-3.371 7.532-7.527v-9.122c0-3.02 2.449-5.468 5.46-5.468H39.2v104.254H20.523a5.466 5.466 0 0 1-5.46-5.461v-54.082a7.528 7.528 0 0 0-7.532-7.532A7.52 7.52 0 0 0 0 390.31v54.082c0 11.316 9.207 20.523 20.523 20.523H39.2c0 12.309 9.305 20.082 19.309 20.082h29.05c8.848 0 16.317-5.984 18.587-14.117 9.261 2.476-16.25 1.496 320.843 1.496 7.762 0 14.078-6.316 14.078-14.078v-237.25c93.66-38.332 95.07-171.73 1.247-211.465zM91.796 397.289v68.399c0 2.3-1.938 4.25-4.238 4.25H58.508c-2.297 0-4.246-1.95-4.246-4.25V329.772c0-2.312 1.949-4.25 4.246-4.25h29.05c2.301 0 4.239 1.938 4.239 4.25zm137.617-201.297h57.43v59.094L264.52 237.62a10.387 10.387 0 0 0-12.786 0l-22.32 17.465zm-1.73 261.281c-119.57.043-113.75.793-120.825-1.988v-109.45c11.121-2.452 20.336-9.237 26.598-21.507 1.664-3.27 14.074-27.656 17.09-33.578 2.496-4.988 16.598 7.621 9.95 20.676l-7.27 14.289c-4.899 9.633 2.085 21.027 12.894 21.027l94.344-.031c4.668 0 8.656 3.828 8.605 8.285-.05 4.422-3.699 8.035-8.136 8.059h-58.872a7.53 7.53 0 0 0-7.53 7.53 7.53 7.53 0 0 0 7.53 7.532l87.907-.008c3.793 0 7.75 3.485 8.363 6.868 1.094 5.46-2.11 9.46-7.75 9.46-.023 0-11.68.008-89.152.008a7.53 7.53 0 1 0 0 15.059c.043 0 75.472 0 75.515.004 7.23.265 10.426 9.004 5.453 13.945a8.07 8.07 0 0 1-5.765 2.39c-57.73.036-41.715.032-82.438.032-4.16 0-7.53 3.371-7.53 7.531s3.37 7.531 7.53 7.531c35.864 0 36.063-.8 39.27 2.387 5.101 5.117 1.476 13.95-5.781 13.95zm198.32.04h-43.195V312.52a7.535 7.535 0 0 0-7.532-7.532 7.528 7.528 0 0 0-7.53 7.532v144.792H249.382c2.086-5.472 2.055-11.226.097-16.386l27.153-.02c16.722 0 27.949-17.16 21.297-32.492 16.738-5.18 20.808-26.059 8.715-38.2-8.133-8.132-16.247-7.167-24.008-7.167 5.82-15.332-5.926-31.399-22.172-31.399l-93.371.032 6.828-13.414c11.453-22.524-8.336-47.36-25.402-43.301v-78.973h65.832v68.711c0 5.723 4.66 10.379 10.386 10.379 4.64 0 3.7-.113 33.39-23.336 29.286 22.91 28.645 23.336 33.388 23.336 5.73 0 10.39-4.656 10.39-10.379v-68.71h14.84c14.371 14.37 31.89 24.452 51 29.581v56.824a7.528 7.528 0 0 0 7.531 7.532 7.535 7.535 0 0 0 7.532-7.532v-53.832c14.332 1.856 29.105 1.012 43.195-2.558zm0 0" fill="#000000" data-original="#000000"></path><path d="M347.973 113.676a7.525 7.525 0 0 0-10.63-.645 7.525 7.525 0 0 0-.644 10.63l30.332 34.245c5.844 6.594 16.13 6.582 21.965.031l69.656-78.175c2.77-3.102 2.493-7.864-.613-10.63a7.532 7.532 0 0 0-10.633.61l-69.379 77.86zm0 0" fill="#000000" data-original="#000000"></path></g></svg>