<svg xmlns="http://www.w3.org/2000/svg" version="1.1" xmlns:xlink="http://www.w3.org/1999/xlink" xmlns:svgjs="http://svgjs.com/svgjs" width="512" height="512" x="0" y="0" viewBox="0 0 682.667 682.667" style="enable-background:new 0 0 512 512" xml:space="preserve" class=""><g><defs><clipPath id="b" clipPathUnits="userSpaceOnUse"><path d="M0 512h512V0H0Z" fill="#000000" data-original="#000000"></path></clipPath></defs><mask id="a"><rect width="100%" height="100%" fill="#ffffff" data-original="#ffffff"></rect></mask><g mask="url(#a)"><g clip-path="url(#b)" transform="matrix(1.33333 0 0 -1.33333 0 682.667)"><path d="M0 0h-80.147c-14.163 0-25.75 11.587-25.75 25.75v0c0 14.163 11.587 25.75 25.75 25.75H0c14.162 0 25.75-11.587 25.75-25.75v0C25.75 11.587 14.162 0 0 0Z" style="stroke-width:15;stroke-linecap:round;stroke-linejoin:round;stroke-miterlimit:10;stroke-dasharray:288, 30;stroke-dashoffset:0;stroke-opacity:1" transform="translate(296.074 452.372)" fill="none" stroke="#000000" stroke-width="15" stroke-linecap="round" stroke-linejoin="round" stroke-miterlimit="10" stroke-dasharray="288, 30" stroke-dashoffset="0" stroke-opacity="" data-original="#000000" class=""></path><path d="M272.698 373.358h-33.396v102.18h33.396z" style="stroke-width:15;stroke-linecap:round;stroke-linejoin:round;stroke-miterlimit:10;stroke-dasharray:none;stroke-opacity:1" fill="none" stroke="#000000" stroke-width="15" stroke-linecap="round" stroke-linejoin="round" stroke-miterlimit="10" stroke-dasharray="none" stroke-opacity="" data-original="#000000" class=""></path><path d="M0 0c-86.616-70.468-213.958-57.377-284.426 29.238-70.467 86.616-57.377 213.958 29.239 284.426 86.616 70.468 213.958 57.377 284.425-29.238C99.706 197.81 86.616 70.468 0 0Z" style="stroke-width:15;stroke-linecap:round;stroke-linejoin:round;stroke-miterlimit:10;stroke-dasharray:560, 30;stroke-dashoffset:0;stroke-opacity:1" transform="translate(383.594 53.482)" fill="none" stroke="#000000" stroke-width="15" stroke-linecap="round" stroke-linejoin="round" stroke-miterlimit="10" stroke-dasharray="560, 30" stroke-dashoffset="0" stroke-opacity="" data-original="#000000" class=""></path><path d="M0 0c53.78 72.553 156.193 87.771 228.747 33.991 72.553-53.78 87.771-156.193 33.991-228.746s-156.194-87.772-228.747-33.992C-38.562-174.966-53.78-72.553 0 0Z" style="stroke-width:15;stroke-linecap:round;stroke-linejoin:round;stroke-miterlimit:10;stroke-dasharray:none;stroke-opacity:1" transform="translate(124.631 307.692)" fill="none" stroke="#000000" stroke-width="15" stroke-linecap="round" stroke-linejoin="round" stroke-miterlimit="10" stroke-dasharray="none" stroke-opacity="" data-original="#000000" class=""></path><path d="m0 0-26.212-17.961c-9.923-6.799-23.604-4.243-30.402 5.679v0c-6.799 9.922-4.244 23.603 5.679 30.402l26.212 17.961c9.922 6.799 23.603 4.243 30.402-5.679v0C12.478 20.48 9.922 6.799 0 0Z" style="stroke-width:15;stroke-linecap:round;stroke-linejoin:round;stroke-miterlimit:10;stroke-dasharray:none;stroke-opacity:1" transform="translate(132.992 420.263)" fill="none" stroke="#000000" stroke-width="15" stroke-linecap="round" stroke-linejoin="round" stroke-miterlimit="10" stroke-dasharray="none" stroke-opacity="" data-original="#000000" class=""></path><path d="m0 0-23.397-16.032-49.053 71.587 23.397 16.032Z" style="stroke-width:15;stroke-linecap:round;stroke-linejoin:round;stroke-miterlimit:10;stroke-dasharray:none;stroke-opacity:1" transform="translate(169.515 363.942)" fill="none" stroke="#000000" stroke-width="15" stroke-linecap="round" stroke-linejoin="round" stroke-miterlimit="10" stroke-dasharray="none" stroke-opacity="" data-original="#000000" class=""></path><path d="m0 0 26.212-17.961c9.923-6.799 23.604-4.243 30.402 5.679v0c6.799 9.922 4.244 23.603-5.679 30.402L24.723 36.081C14.801 42.88 1.12 40.324-5.679 30.402v0C-12.478 20.48-9.922 6.799 0 0Z" style="stroke-width:15;stroke-linecap:round;stroke-linejoin:round;stroke-miterlimit:10;stroke-dasharray:none;stroke-opacity:1" transform="translate(379.009 420.263)" fill="none" stroke="#000000" stroke-width="15" stroke-linecap="round" stroke-linejoin="round" stroke-miterlimit="10" stroke-dasharray="none" stroke-opacity="" data-original="#000000" class=""></path><path d="m0 0 23.397-16.032L72.45 55.555 49.053 71.587Z" style="stroke-width:15;stroke-linecap:round;stroke-linejoin:round;stroke-miterlimit:10;stroke-dasharray:none;stroke-opacity:1" transform="translate(342.485 363.942)" fill="none" stroke="#000000" stroke-width="15" stroke-linecap="round" stroke-linejoin="round" stroke-miterlimit="10" stroke-dasharray="none" stroke-opacity="" data-original="#000000" class=""></path><path d="M0 0v-30.879c0-9.967-8.079-18.046-18.046-18.046v0c-9.966 0-18.045 8.079-18.045 18.046V0" style="stroke-width:15;stroke-linecap:round;stroke-linejoin:round;stroke-miterlimit:10;stroke-dasharray:560, 30;stroke-dashoffset:0;stroke-opacity:1" transform="translate(274.046 302.298)" fill="none" stroke="#000000" stroke-width="15" stroke-linecap="round" stroke-linejoin="round" stroke-miterlimit="10" stroke-dasharray="560, 30" stroke-dashoffset="0" stroke-opacity="" data-original="#000000" class=""></path><path d="M0 0h36.091" style="stroke-width:15;stroke-linecap:round;stroke-linejoin:round;stroke-miterlimit:10;stroke-dasharray:560, 30;stroke-dashoffset:0;stroke-opacity:1" transform="translate(237.954 275.58)" fill="none" stroke="#000000" stroke-width="15" stroke-linecap="round" stroke-linejoin="round" stroke-miterlimit="10" stroke-dasharray="560, 30" stroke-dashoffset="0" stroke-opacity="" data-original="#000000" class=""></path><path d="M0 0v-24.986" style="stroke-width:15;stroke-linecap:round;stroke-linejoin:round;stroke-miterlimit:10;stroke-dasharray:560, 30;stroke-dashoffset:0;stroke-opacity:1" transform="translate(256 302.298)" fill="none" stroke="#000000" stroke-width="15" stroke-linecap="round" stroke-linejoin="round" stroke-miterlimit="10" stroke-dasharray="560, 30" stroke-dashoffset="0" stroke-opacity="" data-original="#000000" class=""></path><path d="M0 0v-131.508" style="stroke-width:15;stroke-linecap:round;stroke-linejoin:round;stroke-miterlimit:10;stroke-dasharray:none;stroke-opacity:1" transform="translate(256 250.424)" fill="none" stroke="#000000" stroke-width="15" stroke-linecap="round" stroke-linejoin="round" stroke-miterlimit="10" stroke-dasharray="none" stroke-opacity="" data-original="#000000" class=""></path><path d="M0 0c13.186 0 23.874-8.079 23.874-18.046 0-9.966-10.688-18.045-23.874-18.045-13.185 0-29.673 8.079-29.673 18.045C-29.673-8.079-13.185 0 0 0Z" style="stroke-width:15;stroke-linecap:round;stroke-linejoin:round;stroke-miterlimit:10;stroke-dasharray:none;stroke-opacity:1" transform="translate(194.748 228.021)" fill="none" stroke="#000000" stroke-width="15" stroke-linecap="round" stroke-linejoin="round" stroke-miterlimit="10" stroke-dasharray="none" stroke-opacity="" data-original="#000000" class=""></path><path d="M0 0h128.709" style="stroke-width:15;stroke-linecap:round;stroke-linejoin:round;stroke-miterlimit:10;stroke-dasharray:none;stroke-opacity:1" transform="translate(218.622 209.975)" fill="none" stroke="#000000" stroke-width="15" stroke-linecap="round" stroke-linejoin="round" stroke-miterlimit="10" stroke-dasharray="none" stroke-opacity="" data-original="#000000" class=""></path><path d="M0 0v-14.557" style="stroke-width:15;stroke-linecap:round;stroke-linejoin:round;stroke-miterlimit:10;stroke-dasharray:560, 30;stroke-dashoffset:0;stroke-opacity:1" transform="translate(256.651 345.838)" fill="none" stroke="#000000" stroke-width="15" stroke-linecap="round" stroke-linejoin="round" stroke-miterlimit="10" stroke-dasharray="560, 30" stroke-dashoffset="0" stroke-opacity="" data-original="#000000" class=""></path><path d="m0 0 7.279-12.607" style="stroke-width:15;stroke-linecap:round;stroke-linejoin:round;stroke-miterlimit:10;stroke-dasharray:560, 30;stroke-dashoffset:0;stroke-opacity:1" transform="translate(188.802 328.007)" fill="none" stroke="#000000" stroke-width="15" stroke-linecap="round" stroke-linejoin="round" stroke-miterlimit="10" stroke-dasharray="560, 30" stroke-dashoffset="0" stroke-opacity="" data-original="#000000" class=""></path><path d="m0 0 12.607-7.279" style="stroke-width:15;stroke-linecap:round;stroke-linejoin:round;stroke-miterlimit:10;stroke-dasharray:560, 30;stroke-dashoffset:0;stroke-opacity:1" transform="translate(138.958 278.64)" fill="none" stroke="#000000" stroke-width="15" stroke-linecap="round" stroke-linejoin="round" stroke-miterlimit="10" stroke-dasharray="560, 30" stroke-dashoffset="0" stroke-opacity="" data-original="#000000" class=""></path><path d="M0 0h14.557" style="stroke-width:15;stroke-linecap:round;stroke-linejoin:round;stroke-miterlimit:10;stroke-dasharray:560, 30;stroke-dashoffset:0;stroke-opacity:1" transform="translate(120.476 210.965)" fill="none" stroke="#000000" stroke-width="15" stroke-linecap="round" stroke-linejoin="round" stroke-miterlimit="10" stroke-dasharray="560, 30" stroke-dashoffset="0" stroke-opacity="" data-original="#000000" class=""></path><path d="m0 0 12.607 7.279" style="stroke-width:15;stroke-linecap:round;stroke-linejoin:round;stroke-miterlimit:10;stroke-dasharray:560, 30;stroke-dashoffset:0;stroke-opacity:1" transform="translate(138.307 143.116)" fill="none" stroke="#000000" stroke-width="15" stroke-linecap="round" stroke-linejoin="round" stroke-miterlimit="10" stroke-dasharray="560, 30" stroke-dashoffset="0" stroke-opacity="" data-original="#000000" class=""></path><path d="m0 0 7.279 12.607" style="stroke-width:15;stroke-linecap:round;stroke-linejoin:round;stroke-miterlimit:10;stroke-dasharray:560, 30;stroke-dashoffset:0;stroke-opacity:1" transform="translate(187.674 93.272)" fill="none" stroke="#000000" stroke-width="15" stroke-linecap="round" stroke-linejoin="round" stroke-miterlimit="10" stroke-dasharray="560, 30" stroke-dashoffset="0" stroke-opacity="" data-original="#000000" class=""></path><path d="M0 0v14.557" style="stroke-width:15;stroke-linecap:round;stroke-linejoin:round;stroke-miterlimit:10;stroke-dasharray:560, 30;stroke-dashoffset:0;stroke-opacity:1" transform="translate(256.35 74.79)" fill="none" stroke="#000000" stroke-width="15" stroke-linecap="round" stroke-linejoin="round" stroke-miterlimit="10" stroke-dasharray="560, 30" stroke-dashoffset="0" stroke-opacity="" data-original="#000000" class=""></path><path d="m0 0-7.279 12.607" style="stroke-width:15;stroke-linecap:round;stroke-linejoin:round;stroke-miterlimit:10;stroke-dasharray:560, 30;stroke-dashoffset:0;stroke-opacity:1" transform="translate(323.198 92.62)" fill="none" stroke="#000000" stroke-width="15" stroke-linecap="round" stroke-linejoin="round" stroke-miterlimit="10" stroke-dasharray="560, 30" stroke-dashoffset="0" stroke-opacity="" data-original="#000000" class=""></path><path d="m0 0-12.607 7.279" style="stroke-width:15;stroke-linecap:round;stroke-linejoin:round;stroke-miterlimit:10;stroke-dasharray:560, 30;stroke-dashoffset:0;stroke-opacity:1" transform="translate(373.042 141.988)" fill="none" stroke="#000000" stroke-width="15" stroke-linecap="round" stroke-linejoin="round" stroke-miterlimit="10" stroke-dasharray="560, 30" stroke-dashoffset="0" stroke-opacity="" data-original="#000000" class=""></path><path d="M0 0h-14.557" style="stroke-width:15;stroke-linecap:round;stroke-linejoin:round;stroke-miterlimit:10;stroke-dasharray:560, 30;stroke-dashoffset:0;stroke-opacity:1" transform="translate(391.524 209.662)" fill="none" stroke="#000000" stroke-width="15" stroke-linecap="round" stroke-linejoin="round" stroke-miterlimit="10" stroke-dasharray="560, 30" stroke-dashoffset="0" stroke-opacity="" data-original="#000000" class=""></path><path d="m0 0-12.607-7.279" style="stroke-width:15;stroke-linecap:round;stroke-linejoin:round;stroke-miterlimit:10;stroke-dasharray:560, 30;stroke-dashoffset:0;stroke-opacity:1" transform="translate(373.693 277.512)" fill="none" stroke="#000000" stroke-width="15" stroke-linecap="round" stroke-linejoin="round" stroke-miterlimit="10" stroke-dasharray="560, 30" stroke-dashoffset="0" stroke-opacity="" data-original="#000000" class=""></path><path d="m0 0-7.279-12.607" style="stroke-width:15;stroke-linecap:round;stroke-linejoin:round;stroke-miterlimit:10;stroke-dasharray:560, 30;stroke-dashoffset:0;stroke-opacity:1" transform="translate(324.326 327.356)" fill="none" stroke="#000000" stroke-width="15" stroke-linecap="round" stroke-linejoin="round" stroke-miterlimit="10" stroke-dasharray="560, 30" stroke-dashoffset="0" stroke-opacity="" data-original="#000000" class=""></path></g></g></g></svg>