<svg xmlns="http://www.w3.org/2000/svg" version="1.1" xmlns:xlink="http://www.w3.org/1999/xlink" xmlns:svgjs="http://svgjs.com/svgjs" width="512" height="512" x="0" y="0" viewBox="0 0 512.001 512.001" style="enable-background:new 0 0 512 512" xml:space="preserve" class=""><g><path d="M496.816 165.769c-18.951-51.836-60.876-97.305-108.173-124.873-23.46-13.674-49.067-25.288-74.909-33.688-27.683-8.999-57.552-8.961-85.891-3.251-35.282 7.109-72.284 16.611-103.973 34.583-42.888 24.324-76.193 63.785-94.648 109.327-10.75 26.529-18.774 56.002-24.163 84.084-5.803 30.239-3.977 60.328 2.419 90.319 5.562 26.081 13.412 51.233 27.761 73.902 12.863 20.321 29.654 37.83 48.905 52.181 22.633 16.873 48.555 27.909 75 37.335 28.652 10.212 57.726 20.834 88.06 24.633 57.521 7.205 118.456-8.963 163.965-44.716 42.7-33.547 71.274-82.289 86.523-133.926 15.798-53.498 18.472-112.99-.876-165.91zm-66.124 261.824c-36.67 41.906-85.761 65.037-140.991 69.33-29.344 2.281-56.689-1.632-84.763-10.262-27.396-8.421-55.415-17.597-81.14-30.316-42.134-20.832-77.919-54.991-94.021-99.87-9.244-25.766-15.083-54.206-16.04-81.552-1.043-29.821 6.272-58.567 14.857-86.888 7.839-25.859 17.079-49.949 32.181-72.54 14.499-21.69 32.888-41.265 54.204-56.377 23.468-16.638 50.308-26.861 77.797-34.801 16.336-4.719 34.042-9.866 51.81-12.867 8.764-.461 17.561-.473 26.269.16 27.136 1.973 52.187 12.449 76.678 23.624 49.228 22.463 89.768 55.057 118.587 101.343 55.278 88.782 31.212 214.863-35.428 291.016z" fill="#000000" data-original="#000000" class=""></path><path d="M306.448 49.288c-25.922-7.671-53.226-8.397-79.883-4.745-44.789 6.136-86.758 24.186-118.729 57.118-32.53 33.508-50.366 75.772-57.571 121.569-6.809 43.277 5.939 91.828 23.679 131.298 18.14 40.359 50.014 70.502 89.26 90.283 40.658 20.492 92.157 35.074 137.944 29.688 45.274-5.326 84.816-33.049 111.318-69.061 27.577-37.472 45.325-83.463 48.66-129.959 3.512-48.97-13.574-97.699-38.067-139.466-24.188-41.251-71.216-73.291-116.611-86.725zm142.061 194.305c5.047 43.888-6.973 88.944-28.074 127.303-21.506 39.094-51.847 70.933-94.736 85.845-42.354 14.726-91.111 3.982-131.981-11.257-38.868-14.492-74.906-37.499-98.221-72.481-22.55-33.834-36.029-78.854-37.517-119.378-1.783-48.539 17.833-101.027 48.116-138.57 14.487-17.961 32.716-31.882 53.367-42.06 11.378-5.608 23.201-10.815 35.343-14.592 7.857-1.623 15.741-2.939 23.469-4.024 23.63-3.319 47.977-3.094 71.305 2.21 39.952 9.084 79.807 33.701 106.949 64.32 14.454 16.305 24.568 36.295 33.198 56.17 9.148 21.07 16.152 43.64 18.782 66.514z" fill="#000000" data-original="#000000" class=""></path><path d="M224.463 111.839c-5.665 7.513-6.132 18.934 1.814 25.341 3.903 3.146 6.858 1.613 11.117 2.962 3.493 1.106 4.309 3.748 4.748 6.742.139 7.147 1.383 13.312 10.482 15.365 8.065 1.82 21.144.807 24.975-7.821 1.856-4.179.218-8.095.592-12.356.548-6.243-.709-1.001 2.589-5.208 1.284-1.637 3.342-2.614 4.679-4.337 6.688-8.623 2.208-20.432-4.881-27.282-15.397-14.878-43.771-9.777-56.115 6.594zm8.044 1.818c6.116-6.035 15.137-9.561 23.674-9.588 9.688-.031 25.637 6.107 24.872 18.335-.477 7.621-8.603 7.807-11.076 13.562-2.922 6.801 4.093 15.042-5.555 18.498-2.95 1.057-9.174 1.712-12.135.384-2.114-.948-3.428-2.773-4.312-4.953.98-6.617-1.681-15.355-7.649-17.136-4.944-1.476-10.182-.427-12.228-6.808-1.531-4.773 1.05-8.979 4.409-12.294zM325.638 269.235c4.416-1.186 6.431-4.923 9.979-7.311 5.199-3.501.332-1.181 5.677-1.262 2.08-.032 4.134.954 6.314.909 10.911-.225 17.273-11.134 18.14-20.955 1.883-21.328-19.929-40.177-40.421-39.477-9.405.321-18.578 7.142-18.56 17.348.009 5.013 3.06 6.346 4.69 10.505 1.337 3.411-.204 5.707-2.255 7.932-5.469 4.604-9.479 9.448-5.353 17.813 3.658 7.416 12.672 16.947 21.789 14.498zm-15.108-25.881c5.761-3.4 10.88-10.965 8.511-16.724-1.962-4.772-6.073-8.184-2.398-13.789 2.748-4.191 7.641-4.83 12.331-4.303 8.538.959 16.953 5.754 22.344 12.374 6.118 7.512 11.377 23.773 1.39 30.868-6.225 4.422-11.481-1.778-17.51-.081-7.126 2.006-9.119 12.643-17.875 7.316-2.677-1.629-7.101-6.055-7.932-9.193-.592-2.241 0-4.411 1.139-6.468zM165.94 303.456c4.416-1.186 6.431-4.922 9.978-7.311 5.199-3.5.332-1.181 5.677-1.262 2.08-.032 4.134.954 6.315.909 10.911-.225 17.273-11.134 18.14-20.955 1.883-21.328-19.93-40.177-40.421-39.477-9.404.321-18.577 7.142-18.56 17.348.009 5.013 3.06 6.346 4.69 10.505 1.337 3.411-.203 5.707-2.256 7.932-5.469 4.604-9.479 9.448-5.352 17.813 3.658 7.416 12.672 16.947 21.789 14.498zm-15.107-25.881c5.761-3.4 10.88-10.965 8.512-16.724-1.963-4.772-6.073-8.184-2.398-13.789 2.747-4.191 7.641-4.83 12.33-4.303 8.538.959 16.954 5.754 22.344 12.374 6.118 7.512 11.377 23.772 1.39 30.868-6.224 4.422-11.481-1.778-17.509-.081-7.126 2.006-9.119 12.643-17.875 7.316-2.677-1.629-7.102-6.055-7.932-9.193-.594-2.241-.002-4.411 1.138-6.468zM259.565 375.548c7.385 3.718 20.32 5.901 26.126-1.543 2.812-3.605 2.171-7.802 3.566-11.845 2.043-5.925-.446-1.143 3.773-4.426 1.642-1.278 3.875-1.727 5.589-3.075 8.576-6.748 7.089-19.29 1.868-27.653-11.337-18.164-40.101-20.082-56.042-7.186-7.316 5.918-10.533 16.887-4.375 25.026 3.025 3.998 6.264 3.225 10.069 5.564 3.121 1.919 3.274 4.68 2.974 7.691-1.594 6.969-1.879 13.252 6.452 17.447zm-15.008-41.157c-.33-5.001 3.193-8.457 7.254-10.86 7.395-4.375 17.001-5.612 25.291-3.572 9.408 2.316 23.396 12.132 19.694 23.81-2.308 7.279-10.238 5.492-14.03 10.477-4.481 5.892.33 15.585-9.868 16.603-3.118.311-9.316-.56-11.867-2.566-1.822-1.432-2.655-3.521-2.985-5.849 2.553-6.183 2.086-15.306-3.273-18.478-4.44-2.627-9.776-2.878-10.216-9.565zM177.484 204.282c35.248-19.954 10.339-74.094-26.837-68.231-15.983 2.521-23.67 15.257-24.784 29.233-2.684 8.783-2.385 18.223 2.672 26.655 9.98 16.641 32.322 21.755 48.949 12.343zM135.2 153.43a26.408 26.408 0 0 1 1.709-2.048c6.049-6.524 14.913-9.338 23.595-7.51 15.294 3.22 29.213 19.078 26.603 35.205-3.206 19.813-27.464 28.373-43.816 18.685-6.8-4.028-10.707-9.369-12.483-15.293-.588-4.038-1.036-8.093-.96-12.049.62-5.742 2.579-11.579 5.352-16.99z" fill="#000000" data-original="#000000" class=""></path><path d="M147.836 178.694c2.85 0 5.411-2.962 4.435-5.823-.678-1.987-2.567-4.036-4.9-3.73-1.507.198-2.712.871-3.365 2.185.013-.038.003-.022-.064.132-.072.159-.171.287-.226.466-.032.104-.036.133-.028.129-.118.272-.227.52-.288.818-.596 2.9 1.321 5.823 4.436 5.823zM151.719 161.761c1.287.699 2.76.812 4.053.055 1.051-.615 1.789-1.79 1.787-3.02l-.003-.021c-.004-.03-.044-.32-.119-.886-.296-1.145-1.021-1.873-1.965-2.549-1.586-1.136-4.208-.329-5.087 1.334-.917 1.735-.491 4.095 1.334 5.087zM157.465 158.037l-.007-.025.095.737a4.125 4.125 0 0 0-.088-.712zM166.724 174.024l.3.127c2.173.916 4.48-1.337 4.48-3.412 0-2.086-2.313-4.325-4.48-3.412l-.3.127c-1.354.571-2.574 1.662-2.501 3.285.074 1.643 1.048 2.672 2.501 3.285zM156.141 185.453l-.049.038c-.088.073-.599.311-.636.33-3.054 1.535-1.677 6.807 1.774 6.55 2.564-.191 4.342-1.774 4.573-4.368.232-2.605-3.052-4.197-5.12-2.938a3.043 3.043 0 0 0-.542.388zM169.383 183.228a30.82 30.82 0 0 1-.147.188c-.751.96-1.107 2.04-.61 3.221.45 1.071 1.513 1.813 2.695 1.813a3.03 3.03 0 0 0 2.546-1.46c.729-1.246.36-2.523-.461-3.573l-.148-.188c-.839-1.075-3.041-1.069-3.875-.001zM169.307 162.881c1.456 0 3.009-1.32 2.878-2.878-.035-.421-.054-.846-.158-1.258-.381-1.512-1.898-2.113-3.307-1.878-1.521.254-2.219 1.768-2.291 3.136-.081 1.554 1.383 2.878 2.878 2.878zM172.119 333.325c-15.983 2.52-23.67 15.257-24.784 29.233-2.684 8.783-2.385 18.223 2.672 26.655 9.98 16.642 32.323 21.755 48.949 12.344 35.247-19.955 10.339-74.094-26.837-68.232zm36.461 43.027c-3.206 19.813-27.463 28.373-43.816 18.685-6.8-4.029-10.707-9.369-12.483-15.293-.588-4.039-1.036-8.093-.96-12.049.619-5.742 2.579-11.58 5.352-16.99a26.408 26.408 0 0 1 1.709-2.048c6.049-6.524 14.913-9.338 23.595-7.51 15.294 3.22 29.212 19.078 26.603 35.205z" fill="#000000" data-original="#000000" class=""></path><path d="M168.844 366.415c-1.507.198-2.712.871-3.365 2.185.013-.038.003-.022-.064.132-.072.159-.171.287-.226.466-.032.104-.036.133-.028.129-.118.272-.227.52-.288.818-.596 2.9 1.32 5.823 4.436 5.823 2.85 0 5.411-2.962 4.435-5.823-.678-1.987-2.568-4.036-4.9-3.73zM179.031 356.07l-.002-.021-.004-.031a4.275 4.275 0 0 0-.088-.707l-.007-.025.093.722-.113-.845c-.296-1.146-1.021-1.873-1.965-2.549-1.586-1.136-4.208-.329-5.087 1.334-.917 1.736-.492 4.096 1.334 5.087 1.287.699 2.76.812 4.053.055 1.05-.615 1.788-1.79 1.786-3.02zM192.976 368.013c0-2.086-2.313-4.325-4.48-3.412l-.3.127c-1.354.571-2.574 1.662-2.501 3.285.073 1.643 1.047 2.672 2.501 3.285l.3.127c2.174.916 4.48-1.337 4.48-3.412zM178.156 382.339a2.993 2.993 0 0 0-.542.388l-.049.038c-.088.073-.599.311-.636.33-3.054 1.535-1.677 6.807 1.774 6.55 2.564-.191 4.342-1.774 4.573-4.367.231-2.606-3.053-4.197-5.12-2.939zM194.73 380.502c-.839-1.074-3.041-1.068-3.876 0a30.82 30.82 0 0 1-.147.188c-.75.96-1.107 2.039-.61 3.221.45 1.07 1.513 1.813 2.695 1.813a3.03 3.03 0 0 0 2.546-1.46c.729-1.246.36-2.523-.461-3.573a5.315 5.315 0 0 0-.147-.189zM190.781 360.155c1.456 0 3.009-1.32 2.878-2.878-.035-.421-.053-.846-.158-1.258-.381-1.512-1.898-2.113-3.307-1.878-1.521.254-2.219 1.768-2.291 3.136-.083 1.554 1.38 2.878 2.878 2.878zM278.804 259.975c35.248-19.954 10.339-74.094-26.837-68.231-15.983 2.521-23.67 15.257-24.784 29.233-2.684 8.783-2.385 18.223 2.672 26.655 9.98 16.641 32.323 21.755 48.949 12.343zm-42.283-50.852a26.408 26.408 0 0 1 1.709-2.048c6.049-6.524 14.913-9.338 23.595-7.51 15.295 3.22 29.213 19.078 26.603 35.205-3.206 19.813-27.464 28.373-43.816 18.685-6.8-4.029-10.707-9.369-12.483-15.293-.588-4.038-1.036-8.093-.96-12.049.62-5.742 2.579-11.58 5.352-16.99z" fill="#000000" data-original="#000000" class=""></path><path d="M249.157 234.387c2.85 0 5.411-2.962 4.435-5.823-.678-1.987-2.567-4.036-4.9-3.731-1.507.198-2.712.871-3.366 2.185.013-.038.003-.022-.064.132-.072.159-.171.287-.226.466-.032.104-.036.133-.027.129-.118.272-.227.52-.288.818-.596 2.901 1.32 5.824 4.436 5.824zM258.787 213.73l-.008-.025.096.737a4.33 4.33 0 0 0-.088-.712zM253.04 217.453c1.287.699 2.76.812 4.053.055 1.051-.615 1.789-1.79 1.787-3.02l-.002-.021c-.004-.03-.044-.32-.119-.886-.296-1.145-1.021-1.873-1.965-2.549-1.586-1.136-4.208-.329-5.087 1.334-.918 1.736-.493 4.096 1.333 5.087zM268.046 229.717l.3.127c2.173.916 4.48-1.337 4.48-3.412 0-2.086-2.313-4.325-4.48-3.412l-.3.127c-1.354.571-2.574 1.662-2.501 3.285.072 1.643 1.047 2.672 2.501 3.285zM257.462 241.146l-.049.038c-.088.073-.599.311-.636.33-3.054 1.535-1.677 6.807 1.774 6.55 2.564-.191 4.342-1.774 4.573-4.368.232-2.605-3.052-4.197-5.12-2.938a2.959 2.959 0 0 0-.542.388zM270.704 238.92a30.82 30.82 0 0 1-.147.188c-.75.96-1.107 2.04-.61 3.221.45 1.071 1.513 1.813 2.695 1.813a3.03 3.03 0 0 0 2.546-1.46c.729-1.246.36-2.523-.461-3.573a30.82 30.82 0 0 0-.147-.188c-.84-1.074-3.042-1.068-3.876-.001zM270.628 218.574c1.456 0 3.009-1.32 2.878-2.878-.035-.421-.053-.846-.158-1.258-.381-1.512-1.898-2.113-3.307-1.878-1.521.254-2.219 1.768-2.291 3.136-.081 1.554 1.382 2.878 2.878 2.878zM351.947 311.182c-15.983 2.521-23.67 15.257-24.784 29.233-2.684 8.783-2.385 18.223 2.672 26.655 9.98 16.642 32.323 21.755 48.949 12.344 35.247-19.955 10.339-74.094-26.837-68.232zm36.461 43.027c-3.206 19.813-27.464 28.373-43.816 18.685-6.8-4.029-10.707-9.369-12.483-15.293-.588-4.038-1.036-8.093-.96-12.049.619-5.742 2.579-11.58 5.352-16.99a26.408 26.408 0 0 1 1.709-2.048c6.049-6.524 14.913-9.338 23.595-7.51 15.294 3.22 29.212 19.078 26.603 35.205z" fill="#000000" data-original="#000000" class=""></path><path d="M348.671 344.272c-1.507.198-2.712.871-3.365 2.185.013-.038.003-.022-.064.132-.072.159-.171.287-.226.466-.032.104-.036.133-.027.129-.118.272-.227.52-.289.818-.596 2.9 1.32 5.823 4.436 5.823 2.849 0 5.411-2.962 4.435-5.823-.676-1.987-2.567-4.036-4.9-3.73zM358.859 333.927l-.002-.021a.377.377 0 0 1-.004-.03 4.082 4.082 0 0 0-.088-.708l-.007-.025c.059.456.088.675.093.723l-.114-.847c-.296-1.146-1.021-1.873-1.965-2.549-1.586-1.136-4.208-.329-5.087 1.334-.917 1.736-.491 4.096 1.334 5.087 1.287.699 2.76.812 4.053.055 1.051-.614 1.789-1.789 1.787-3.019zM372.804 345.87c0-2.086-2.313-4.325-4.48-3.412l-.3.127c-1.354.571-2.574 1.662-2.501 3.285.073 1.643 1.047 2.672 2.501 3.285l.3.127c2.174.916 4.48-1.337 4.48-3.412zM357.983 360.196a2.993 2.993 0 0 0-.542.388l-.049.038c-.088.073-.599.311-.636.33-3.054 1.535-1.677 6.807 1.774 6.55 2.564-.191 4.342-1.774 4.573-4.368.232-2.605-3.052-4.196-5.12-2.938zM374.559 358.359c-.839-1.074-3.041-1.068-3.876 0a30.82 30.82 0 0 1-.147.188c-.75.96-1.107 2.04-.61 3.221.45 1.07 1.513 1.813 2.695 1.813a3.03 3.03 0 0 0 2.546-1.461c.729-1.246.36-2.523-.461-3.573l-.147-.188zM370.608 338.012c1.456 0 3.009-1.32 2.878-2.878-.035-.421-.053-.846-.158-1.258-.381-1.512-1.898-2.113-3.307-1.878-1.521.254-2.219 1.768-2.291 3.136-.082 1.554 1.381 2.878 2.878 2.878zM359.324 175.429c35.248-19.954 10.339-74.094-26.837-68.231-15.983 2.521-23.671 15.257-24.784 29.233-2.684 8.783-2.385 18.223 2.672 26.655 9.98 16.641 32.323 21.755 48.949 12.343zm-42.283-50.852a26.408 26.408 0 0 1 1.709-2.048c6.049-6.524 14.913-9.338 23.595-7.51 15.294 3.22 29.212 19.078 26.603 35.205-3.206 19.813-27.464 28.373-43.816 18.685-6.8-4.028-10.707-9.369-12.483-15.293-.588-4.038-1.036-8.093-.96-12.049.62-5.742 2.579-11.58 5.352-16.99z" fill="#000000" data-original="#000000" class=""></path><path d="M329.677 149.841c2.849 0 5.411-2.962 4.435-5.823-.678-1.987-2.567-4.036-4.9-3.731-1.507.198-2.712.871-3.365 2.185.013-.038.003-.022-.064.132-.072.159-.171.287-.226.466-.032.104-.036.132-.027.129-.118.272-.227.52-.289.818-.596 2.901 1.32 5.824 4.436 5.824zM339.306 129.184l-.007-.025.096.737a4.232 4.232 0 0 0-.089-.712zM333.56 132.907c1.287.699 2.76.812 4.053.055 1.051-.615 1.789-1.79 1.787-3.02l-.003-.021-.119-.886c-.296-1.146-1.021-1.873-1.965-2.549-1.586-1.136-4.208-.329-5.087 1.334-.917 1.736-.492 4.096 1.334 5.087zM348.565 145.171l.3.127c2.173.916 4.48-1.337 4.48-3.412 0-2.086-2.313-4.325-4.48-3.412l-.3.127c-1.354.571-2.574 1.662-2.501 3.285.073 1.643 1.048 2.672 2.501 3.285zM337.982 156.6l-.049.038c-.088.073-.599.311-.636.33-3.054 1.535-1.677 6.807 1.774 6.55 2.564-.191 4.342-1.774 4.573-4.368.232-2.605-3.052-4.197-5.12-2.938a2.959 2.959 0 0 0-.542.388zM351.224 154.374a30.82 30.82 0 0 1-.147.188c-.75.96-1.107 2.04-.61 3.221.45 1.07 1.513 1.813 2.695 1.813a3.03 3.03 0 0 0 2.546-1.46c.729-1.246.36-2.523-.461-3.573a30.82 30.82 0 0 0-.147-.188c-.84-1.074-3.041-1.068-3.876-.001zM351.148 134.028c1.456 0 3.009-1.32 2.878-2.878-.035-.421-.054-.847-.158-1.258-.381-1.512-1.898-2.113-3.307-1.878-1.521.254-2.219 1.768-2.291 3.136-.081 1.553 1.382 2.878 2.878 2.878zM378.742 177.52c-2.258 4.159-.936 7.799.89 11.844 3.921 8.687 4.947 16.692 6.546 25.971a68.564 68.564 0 0 1-3.515 20.204c-2.588 7.772-7.017 18.175-3.681 26.406 4.907 12.107 18.121 7.563 22.956-1.43 7.129-13.257 7.991-30.835 8.742-45.553.635-12.438 2.353-31.342-8.409-40.246-6.447-5.334-19.139-5.279-23.529 2.804zm25.423 20.589c.628 13.757-.413 28.102-3.002 41.612-1.16 6.053-2.512 13.149-5.994 18.371-5.424 8.132-10.611 1.382-9.642-6.523.97-7.916 4.586-15.236 5.742-23.102 1.359-9.246.392-18.367-1.975-27.196a30.825 30.825 0 0 0-.25-2.674c-.904-6.284-8.978-17.277.189-20.658 11.255-4.153 14.577 12.398 14.932 20.17zM112.241 280.295c2.272-4.151.962-7.796-.85-11.847-3.893-8.7-4.892-16.708-6.46-25.993a68.604 68.604 0 0 1 3.582-20.192c2.614-7.764 7.077-18.152 3.769-26.394-4.867-12.123-18.095-7.623-22.961 1.353-7.172 13.233-8.093 30.808-8.894 45.523-.676 12.436-2.457 31.334 8.275 40.273 6.43 5.358 19.124 5.345 23.539-2.723zm-10.488-.453c-11.27 4.114-14.537-12.448-14.866-20.221-.582-13.759.506-28.1 3.14-41.602 1.18-6.049 2.556-13.141 6.056-18.35 5.451-8.114 10.615-1.347 9.621 6.555-.996 7.912-4.636 15.22-5.819 23.083-1.39 9.241-.453 18.366 1.884 27.203.047.893.117 1.786.241 2.675.884 6.287 8.921 17.307-.257 20.657zM172.954 130.841c4.731-.119 7.225-3.081 9.819-6.683 5.57-7.734 11.995-12.619 19.237-18.635a68.602 68.602 0 0 1 19.262-7.039c8.027-1.637 19.252-2.992 24.719-9.991 8.041-10.295-2.491-19.477-12.697-19.178-15.046.44-30.708 8.467-43.836 15.162-11.095 5.658-28.333 13.605-30.677 27.375-1.404 8.249 4.979 19.221 14.173 18.989zm5.152-32.306c11.607-7.411 24.557-13.669 37.556-18.169 5.824-2.016 12.648-4.387 18.91-3.975 9.754.641 6.494 8.505-.839 11.611-7.343 3.111-15.491 3.631-22.885 6.555-8.69 3.437-16.111 8.828-22.58 15.286a30.87 30.87 0 0 0-2.192 1.551c-4.994 3.92-10.49 16.404-17.995 10.148-9.216-7.681 3.468-18.821 10.025-23.007zM317.735 390.128c-4.651-.871-7.709 1.506-10.997 4.486-7.061 6.401-14.364 9.838-22.703 14.21a68.57 68.57 0 0 1-20.306 2.864c-8.191-.074-19.452-1.092-26.259 4.612-10.013 8.39-1.628 19.568 8.415 21.406 14.806 2.71 31.799-1.871 46.035-5.679 12.031-3.218 30.548-7.392 35.715-20.369 3.094-7.775-.859-19.837-9.9-21.53zm-11.78 30.52c-12.899 4.825-26.869 8.243-40.521 9.93-6.117.756-13.285 1.65-19.324-.059-9.405-2.663-4.576-9.673 3.245-11.18 7.831-1.51 15.908-.318 23.749-1.635 9.216-1.548 17.599-5.271 25.274-10.236a30.797 30.797 0 0 0 2.468-1.06c5.702-2.792 13.682-13.853 19.716-6.169 7.408 9.436-7.321 17.683-14.607 20.409zM271.097 302.482c12.42.931 31.277 3.098 40.434-7.449 5.487-6.32 5.733-19.011-2.242-23.59-4.104-2.357-7.774-1.121-11.862.608-8.777 3.714-16.805 4.549-26.119 5.927a68.595 68.595 0 0 1-20.115-3.995c-7.708-2.772-18.003-7.447-26.311-4.308-12.22 4.618-7.992 17.935.883 22.983 13.084 7.442 30.637 8.722 45.332 9.824zm-35.996-26.019c7.89 1.158 15.122 4.947 22.959 6.29 9.211 1.579 18.352.829 27.236-1.327.894-.029 1.787-.08 2.679-.187 6.304-.754 17.487-8.565 20.648.68 3.883 11.351-12.743 14.279-20.521 14.449-13.768.3-28.084-1.081-41.529-3.991-6.023-1.304-13.085-2.824-18.222-6.43-8.002-5.616-1.13-10.64 6.75-9.484zM232.888 172.201c-.885-5.637-5.736-10.312-11.347-11.211-6.463-1.035-11.801 3.63-12.356 9.8-.617 2.361-.546 4.919.45 7.572 2.04 5.437 7.518 10.218 13.638 9.006 6.529-1.293 10.605-8.866 9.615-15.167zm-6.69 4.928c-2.149 4.696-6.486 5.491-10.145 1.85-3.085-3.071-3.496-7.026-1.972-10.452 1.785-2.027 4.122-3.113 7.469-1.859 4.344 1.627 6.619 6.154 4.648 10.461zM116.865 305.927c-6.463-1.035-11.801 3.63-12.356 9.8-.617 2.361-.546 4.919.45 7.572 2.04 5.437 7.518 10.218 13.638 9.006 6.529-1.294 10.605-8.866 9.615-15.167-.885-5.638-5.736-10.313-11.347-11.211zm4.657 16.138c-2.149 4.696-6.486 5.491-10.145 1.85-3.085-3.071-3.496-7.026-1.972-10.452 1.785-2.027 4.122-3.113 7.469-1.86 4.344 1.628 6.619 6.155 4.648 10.462zM208.96 302.404c-6.463-1.035-11.801 3.63-12.356 9.8-.617 2.361-.546 4.919.45 7.572 2.04 5.437 7.518 10.218 13.638 9.006 6.529-1.294 10.605-8.866 9.615-15.167-.885-5.637-5.737-10.312-11.347-11.211zm4.657 16.139c-2.149 4.696-6.486 5.491-10.145 1.85-3.085-3.071-3.496-7.026-1.972-10.452 1.785-2.027 4.122-3.113 7.469-1.859 4.344 1.627 6.619 6.153 4.648 10.461zM364.686 299.593c6.529-1.294 10.605-8.866 9.615-15.167-.885-5.637-5.736-10.312-11.347-11.211-6.463-1.035-11.801 3.63-12.356 9.8-.617 2.361-.546 4.919.45 7.572 2.04 5.437 7.518 10.219 13.638 9.006zm-9.191-18.84c1.785-2.027 4.122-3.113 7.469-1.859 4.343 1.627 6.618 6.153 4.647 10.461-2.149 4.696-6.486 5.491-10.145 1.85-3.084-3.071-3.496-7.027-1.971-10.452zM398.408 296.604c-.617 2.361-.546 4.919.45 7.572 2.039 5.437 7.518 10.218 13.638 9.006 6.529-1.294 10.605-8.866 9.615-15.167-.885-5.637-5.736-10.312-11.347-11.211-6.464-1.036-11.802 3.629-12.356 9.8zm17.013 6.338c-2.149 4.696-6.486 5.491-10.145 1.85-3.085-3.071-3.496-7.026-1.972-10.452 1.785-2.027 4.122-3.113 7.469-1.859 4.343 1.627 6.618 6.153 4.648 10.461zM294.734 97.79c6.529-1.294 10.605-8.866 9.615-15.167-.885-5.637-5.736-10.312-11.347-11.211-6.463-1.035-11.801 3.63-12.356 9.8-.617 2.361-.546 4.919.45 7.572 2.04 5.437 7.518 10.219 13.638 9.006zm-9.191-18.841c1.785-2.027 4.122-3.113 7.469-1.859 4.344 1.627 6.618 6.153 4.647 10.461-2.149 4.696-6.486 5.491-10.145 1.85-3.085-3.07-3.494-7.026-1.971-10.452zM302.84 178.24c-.885-5.637-5.736-10.312-11.347-11.211-6.463-1.035-11.801 3.63-12.356 9.8-.617 2.361-.546 4.919.45 7.572 2.04 5.437 7.518 10.218 13.638 9.006 6.528-1.293 10.605-8.866 9.615-15.167zm-6.69 4.928c-2.149 4.696-6.486 5.491-10.145 1.85-3.085-3.071-3.496-7.026-1.972-10.452 1.785-2.027 4.122-3.113 7.469-1.859 4.344 1.627 6.619 6.154 4.648 10.461zM128.943 210.813c-6.463-1.035-11.801 3.63-12.356 9.8-.617 2.361-.546 4.919.45 7.572 2.04 5.437 7.518 10.218 13.638 9.006 6.529-1.294 10.605-8.866 9.615-15.167-.884-5.638-5.736-10.313-11.347-11.211zm4.658 16.138c-2.149 4.696-6.486 5.491-10.145 1.85-3.085-3.071-3.496-7.026-1.972-10.452 1.785-2.027 4.122-3.113 7.469-1.859 4.343 1.627 6.618 6.153 4.648 10.461zM238.873 401.25c6.529-1.294 10.605-8.866 9.615-15.167-.885-5.637-5.736-10.312-11.347-11.211-6.463-1.035-11.801 3.63-12.356 9.8-.617 2.361-.546 4.919.45 7.572 2.04 5.437 7.518 10.218 13.638 9.006zm-7.219-8.389c-3.085-3.071-3.496-7.026-1.972-10.452 1.785-2.027 4.122-3.113 7.469-1.859 4.344 1.627 6.618 6.153 4.647 10.461-2.149 4.696-6.486 5.49-10.144 1.85z" fill="#000000" data-original="#000000" class=""></path></g></svg>